<svg width="24" height="24" viewBox="0 0 24 24" fill="none" xmlns="http://www.w3.org/2000/svg">
<path d="M8.5 13.75C8.5 12.5534 9.47005 11.5833 10.6667 11.5833H19.3333C20.53 11.5833 21.5 12.5534 21.5 13.75V20.25C21.5 21.4466 20.53 22.4166 19.3333 22.4166H10.6667C9.47005 22.4166 8.5 21.4466 8.5 20.25V13.75Z" fill="#E3FBFF"/>
<path fill-rule="evenodd" clip-rule="evenodd" d="M3.21875 9.18254C3.21875 7.7031 4.22232 6.21875 5.77778 6.21875H12.8889C14.4443 6.21875 15.4479 7.7031 15.4479 9.18254V9.30286L18.479 7.92464C19.0801 7.65135 19.6992 7.80448 20.1264 8.16953C20.542 8.52463 20.7812 9.07119 20.7812 9.65916V15.3408C20.7812 15.9288 20.542 16.4754 20.1264 16.8305C19.6992 17.1955 19.0801 17.3487 18.479 17.0754L15.4479 15.6971V15.8175C15.4479 17.2969 14.4443 18.7813 12.8889 18.7813H5.77778C4.22232 18.7813 3.21875 17.2969 3.21875 15.8175V9.18254ZM13.8854 14.466C13.8852 14.4775 13.8852 14.489 13.8854 14.5005V15.8175C13.8854 16.7488 13.2971 17.2188 12.8889 17.2188H5.77778C5.36956 17.2188 4.78125 16.7488 4.78125 15.8175V9.18254C4.78125 8.25121 5.36956 7.78125 5.77778 7.78125H12.8889C13.2971 7.78125 13.8854 8.25121 13.8854 9.18254V10.4995C13.8852 10.511 13.8852 10.5225 13.8854 10.534V14.466ZM15.4479 13.9807L19.1084 15.6451C19.1093 15.6443 19.1103 15.6435 19.1114 15.6426C19.1495 15.61 19.2188 15.5129 19.2188 15.3408V9.65916C19.2188 9.48707 19.1495 9.38998 19.1114 9.35743C19.1103 9.35653 19.1093 9.35569 19.1084 9.35492L15.4479 11.0193V13.9807Z" fill="#4383D6"/>
</svg>
