<svg width="24" height="24" viewBox="0 0 24 24" fill="none" xmlns="http://www.w3.org/2000/svg">
<path d="M10.4925 2.17184L10.649 2.19852L10.7923 2.12993C11.6284 1.72971 12.5616 1.5 13.5514 1.5C17.0533 1.5 19.879 4.29317 19.879 7.72222V12.8263L19.868 13.2079C19.7624 16.884 16.7069 19.8453 12.9307 19.8453C9.15447 19.8453 6.09905 16.884 5.99339 13.2079L5.98242 12.8263V5.88889C5.98242 3.80978 7.69645 2.11111 9.82725 2.11111C10.0488 2.11111 10.2696 2.13388 10.4925 2.17184Z" fill="#292F33" stroke="#484848"/>
<path d="M7.34473 4.05571V11.389C7.34473 14.4269 9.84548 16.889 12.9309 16.889C16.0164 16.889 18.5171 14.4269 18.5171 11.389V4.05571H7.34473Z" fill="#F7DECE"/>
<path d="M18.5171 4.0554V3.44429H6.72461V7.72207C10.4487 7.72207 10.4487 4.0554 10.4487 4.0554C10.4487 4.0554 11.6901 8.33318 19.1384 8.33318V4.0554H18.5171Z" fill="#292F33"/>
<path d="M9.46821 2.79361C9.10138 2.55589 8.60731 2.65672 8.36586 3.01789L7.96552 3.618V2.22222C7.96552 1.54694 7.40938 1 6.72414 1H4.24138C3.55614 1 3 1.54756 3 2.22222V7.11111C3 7.11111 3 7.72222 3.62069 7.72222H7.34483L7.96552 7.11111V6.47372L9.69662 3.87894C9.93807 3.51717 9.83628 3.03133 9.46821 2.79361V2.79361Z" fill="#F7DECE"/>
<path d="M4.24121 1H4.8619V4.05556H4.24121V1ZM6.10328 1H6.72397V4.05556H6.10328V1Z" fill="#D89882"/>
<path d="M18.5172 17.5H7.34483L7.96552 7.11113H3V17.5C3 17.5 3 23 7.96552 23H21V19.9445C21 18.5945 19.8883 17.5 18.5172 17.5Z" fill="#FB7DB9"/>
<path d="M13.5517 12.9168H12.3103C12.139 12.9168 12 12.7799 12 12.6113C12 12.4426 12.139 12.3057 12.3103 12.3057H13.5517C13.723 12.3057 13.8621 12.4426 13.8621 12.6113C13.8621 12.7799 13.723 12.9168 13.5517 12.9168Z" fill="#C1694F"/>
<path d="M10.4488 10.7776C10.1062 10.7776 9.82812 10.5038 9.82812 10.1665V9.5554C9.82812 9.21807 10.1062 8.94429 10.4488 8.94429C10.7914 8.94429 11.0695 9.21807 11.0695 9.5554V10.1665C11.0695 10.5038 10.7914 10.7776 10.4488 10.7776ZM15.4143 10.7776C15.0711 10.7776 14.7936 10.5038 14.7936 10.1665V9.5554C14.7936 9.21807 15.0711 8.94429 15.4143 8.94429C15.7576 8.94429 16.035 9.21807 16.035 9.5554V10.1665C16.035 10.5038 15.7576 10.7776 15.4143 10.7776Z" fill="#662113"/>
<path d="M11.0684 14.4443V18.111C11.0684 19.1236 11.9019 19.9443 12.9304 19.9443C13.9589 19.9443 14.7925 19.1236 14.7925 18.111V14.4443H11.0684Z" fill="#F7DECE"/>
<path d="M15.4138 14.4443H10.4482C10.4482 14.4443 11.0689 15.6665 12.931 15.6665C14.7931 15.6665 15.4138 14.4443 15.4138 14.4443Z" fill="#DF1F32"/>
<path d="M17.8965 20.5557H18.5172V23.0002H17.8965V20.5557Z" fill="#BC3D7A"/>
</svg>
