<svg width="24" height="24" viewBox="0 0 24 24" fill="none" xmlns="http://www.w3.org/2000/svg">
<path d="M18.2438 5.61605C23.1512 10.3776 24.4772 16.8124 21.2058 19.9862C17.9345 23.1612 11.3057 21.8742 6.39903 17.1127C6.23236 16.9509 6.08036 16.7827 5.92169 16.617L8.86639 13.759C12.6824 17.4627 17.5438 18.7503 19.7238 16.6332C21.9045 14.5167 20.5785 9.79852 16.7631 6.09486L16.7778 6.10845L16.7638 6.09421C12.4031 1.86127 6.43637 0.789127 3.43834 3.69887C1.98832 5.10618 1.50699 7.18836 1.87966 9.44006C1.30765 6.79819 1.77965 4.35044 3.43834 2.74125C6.70903 -0.433132 13.3378 0.853831 18.2438 5.61605Z" fill="#FDD888"/>
<path d="M11.9354 22.9995C11.7674 22.9995 11.6 22.9497 11.456 22.85L8.072 20.4941L4.68796 22.85C4.3993 23.0506 4.01263 23.0506 3.72596 22.8468C3.43929 22.6449 3.31862 22.2877 3.42595 21.961L4.68863 18.0076L1.3346 15.7138C1.04926 15.51 0.931263 15.1515 1.03993 14.8241C1.14993 14.498 1.4626 14.2761 1.8166 14.2735L5.91464 14.2657L7.29266 10.4113C7.40466 10.0852 7.71866 9.8652 8.07266 9.8652C8.42667 9.8652 8.74067 10.0852 8.85267 10.4113L10.0967 14.2657L14.3281 14.2735C14.6827 14.2761 14.9961 14.498 15.1047 14.8241C15.2141 15.1515 15.0954 15.51 14.8101 15.7138L11.456 18.0076L12.718 21.961C12.826 22.2877 12.704 22.6455 12.4187 22.8468C12.274 22.949 12.1047 22.9995 11.9354 22.9995V22.9995Z" fill="#FFAC33"/>
</svg>
