<svg width="24" height="24" viewBox="0 0 24 24" fill="none" xmlns="http://www.w3.org/2000/svg">
<path d="M7.34473 4.62878V11.3889C7.34473 14.4267 9.84549 16.8889 12.9309 16.8889C16.0164 16.8889 18.5171 14.4267 18.5171 11.3889V4.81945L7.34473 4.62878Z" fill="#F7DECE"/>
<path d="M10.4482 14.4445H15.4138C15.4138 14.4445 14.7931 15.6667 12.931 15.6667C11.0689 15.6667 10.4482 14.4445 10.4482 14.4445Z" fill="#C1694F"/>
<path d="M10.4478 10.7778C10.1052 10.7778 9.82715 10.504 9.82715 10.1667V9.55557C9.82715 9.21824 10.1052 8.94446 10.4478 8.94446C10.7905 8.94446 11.0685 9.21824 11.0685 9.55557V10.1667C11.0685 10.504 10.7905 10.7778 10.4478 10.7778ZM15.4134 10.7778C15.0707 10.7778 14.7927 10.504 14.7927 10.1667V9.55557C14.7927 9.21824 15.0707 8.94446 15.4134 8.94446C15.756 8.94446 16.034 9.21824 16.034 9.55557V10.1667C16.034 10.504 15.756 10.7778 15.4134 10.7778Z" fill="#662113"/>
<path d="M13.5517 12.9167H12.3103C12.139 12.9167 12 12.7798 12 12.6111C12 12.4424 12.139 12.3055 12.3103 12.3055H13.5517C13.723 12.3055 13.8621 12.4424 13.8621 12.6111C13.8621 12.7798 13.723 12.9167 13.5517 12.9167Z" fill="#C1694F"/>
<path d="M8.49107 9.38138C8.49107 10.3469 7.99452 11.1298 7.38128 11.1298C6.76804 11.1298 6.27148 10.3469 6.27148 9.38138C6.27148 8.41583 6.76866 7.633 7.38128 7.633C7.9939 7.633 8.49107 8.41583 8.49107 9.38138ZM19.5902 9.38138C19.5902 10.3469 19.0937 11.1298 18.4805 11.1298C17.8672 11.1298 17.3707 10.3469 17.3707 9.38138C17.3707 8.41583 17.8672 7.633 18.4805 7.633C19.0937 7.633 19.5902 8.41583 19.5902 9.38138Z" fill="#F7DECE"/>
<path d="M12.9309 1.50293C8.57425 1.50293 6.6377 4.36537 6.6377 6.75115C6.6377 9.13632 7.47128 9.79815 7.60597 9.13632C8.09011 6.75115 9.54252 6.01904 9.54252 6.01904C12.4474 8.40482 11.9632 6.49632 11.9632 6.49632C14.8674 9.35876 13.4156 6.49632 13.4156 6.49632C14.3839 7.45087 17.2881 7.45087 17.2881 7.45087C17.2881 7.45087 17.7722 8.18298 18.2558 9.13693C18.7399 10.0915 19.224 9.13693 19.224 6.75176C19.224 4.36537 16.8033 1.50293 12.9309 1.50293V1.50293Z" fill="#292F33"/>
<path d="M9.46821 2.79361C9.10138 2.55589 8.60731 2.65672 8.36586 3.01789L7.96552 3.618V2.22222C7.96552 1.54694 7.40938 1 6.72414 1H4.24138C3.55614 1 3 1.54756 3 2.22222V7.11111C3 7.11111 3 7.72222 3.62069 7.72222H7.34483L7.96552 7.11111V6.47372L9.69662 3.87894C9.93807 3.51717 9.83628 3.03133 9.46821 2.79361V2.79361Z" fill="#F7DECE"/>
<path d="M4.24121 1H4.8619V4.05556H4.24121V1ZM6.10328 1H6.72397V4.05556H6.10328V1Z" fill="#E0AA94"/>
<path d="M18.5172 17.5H7.34483L7.96552 7.11111H3V17.5C3 17.5 3 23 7.96552 23H21V19.9444C21 18.5945 19.8883 17.5 18.5172 17.5Z" fill="#A069E9"/>
<path d="M17.8965 20.5555H18.5172V23H17.8965V20.5555Z" fill="#6B36B0"/>
<path d="M11.0693 15.6667V18.1111C11.0693 19.1237 11.9029 19.9445 12.9314 19.9445C13.9599 19.9445 14.7935 19.1237 14.7935 18.1111V15.6667H11.0693Z" fill="#F7DECE"/>
</svg>
