<svg width="20" height="20" viewBox="0 0 20 20" fill="none" xmlns="http://www.w3.org/2000/svg">
<g id="lamp-2" clip-path="url(#clip0_1822_1620)">
<path id="Vector" d="M15.8338 10.0006C15.8338 11.8006 15.0171 13.4673 13.6088 14.584C13.0338 15.034 12.6588 15.6256 12.5421 16.259L12.5004 16.2506H7.50042L7.44209 16.259C7.32542 15.6006 6.98375 15.0256 6.49209 14.659C4.67542 13.284 3.82542 11.034 4.29209 8.76731C4.75042 6.55898 6.54209 4.75898 8.75042 4.30065C10.5088 3.92565 12.3088 4.35898 13.6754 5.46731C15.0504 6.58398 15.8338 8.23398 15.8338 10.0006Z" fill="#FFA333"/>
<g id="Group">
<path id="Vector_2" d="M15.4764 5.14956C15.3164 5.14956 15.1564 5.08873 15.0347 4.96623C14.7905 4.72206 14.7905 4.32623 15.0347 4.08206L16.188 2.92873C16.4322 2.68456 16.828 2.68456 17.0722 2.92873C17.3163 3.1729 17.3163 3.56873 17.0722 3.8129L15.9188 4.96623C15.7963 5.08789 15.6363 5.14956 15.4764 5.14956Z" fill="#FFA333"/>
<path id="Vector_3" d="M19.375 10.625H17.7441C17.3991 10.625 17.1191 10.345 17.1191 10C17.1191 9.655 17.3991 9.375 17.7441 9.375H19.375C19.72 9.375 20 9.655 20 10C20 10.345 19.72 10.625 19.375 10.625Z" fill="#FFA333"/>
<path id="Vector_4" d="M16.6297 17.2555C16.4697 17.2555 16.3097 17.1947 16.188 17.0722L15.0347 15.9189C14.7905 15.6747 14.7905 15.2789 15.0347 15.0347C15.2789 14.7905 15.6747 14.7905 15.9188 15.0347L17.0722 16.188C17.3163 16.4322 17.3163 16.828 17.0722 17.0722C16.9497 17.1947 16.7897 17.2555 16.6297 17.2555Z" fill="#FFA333"/>
</g>
<path id="Vector_5" d="M12.5414 16.2583C12.5164 16.4 12.4997 16.5417 12.4997 16.6917V18.5417C12.4997 19.3417 11.8414 20 11.0414 20H8.95807C8.25807 20 7.49974 19.4667 7.49974 18.3V16.825C7.49974 16.6333 7.48307 16.4417 7.44141 16.2583L7.49974 16.25H12.4997L12.5414 16.2583Z" fill="#006BC2"/>
<path id="Vector_6" d="M10 2.88083C9.655 2.88083 9.375 2.60083 9.375 2.25583V0.625C9.375 0.28 9.655 0 10 0C10.345 0 10.625 0.28 10.625 0.625V2.25583C10.625 2.60083 10.345 2.88083 10 2.88083Z" fill="#FFA333"/>
<path id="Vector_7" d="M4.52421 5.14956C4.36421 5.14956 4.20422 5.08873 4.08255 4.96623L2.92922 3.8129C2.68505 3.56873 2.68505 3.1729 2.92922 2.92873C3.17338 2.68456 3.56922 2.68456 3.81338 2.92873L4.96671 4.08206C5.21088 4.32623 5.21088 4.72206 4.96671 4.96623C4.84338 5.08789 4.68421 5.14956 4.52421 5.14956Z" fill="#FFA333"/>
<path id="Vector_8" d="M2.25583 10.625H0.625C0.28 10.625 0 10.345 0 10C0 9.655 0.28 9.375 0.625 9.375H2.25583C2.60083 9.375 2.88083 9.655 2.88083 10C2.88083 10.345 2.60083 10.625 2.25583 10.625Z" fill="#FFA333"/>
<path id="Vector_9" d="M3.37088 17.2555C3.21088 17.2555 3.05088 17.1947 2.92922 17.0722C2.68505 16.828 2.68505 16.4322 2.92922 16.188L4.08255 15.0347C4.32672 14.7905 4.72255 14.7905 4.96671 15.0347C5.21088 15.2789 5.21088 15.6747 4.96671 15.9189L3.81338 17.0722C3.69088 17.1947 3.53088 17.2555 3.37088 17.2555Z" fill="#FFA333"/>
</g>
<defs>
<clipPath id="clip0_1822_1620">
<rect width="24" height="24" fill="white"/>
</clipPath>
</defs>
</svg>
